<?xml version="1.0" encoding="UTF-8" standalone="no"?>
<svg width="128" height="128" viewBox="0 0 128 128" fill="none" xmlns="http://www.w3.org/2000/svg">
  <rect width="128" height="128" fill="#1F1F1F"/>
  <path d="M108 108c8-2.4 12.8-6.4 12.8-6.4l-12.8-9.6c-6.4-4-11.2-10.4-14.4-16.8-5.6-8.8-12-16-20.8-21.6l-4-2.4c-1.6-0.8-2.4-2.4-2.4-4 0-1.6 0-2.4 0.8-3.2 2.4-3.2 14.4-6.4 16-0.8 2.4-2.4 5.6-4 8-5.6l1.6-1.6c0.8-0.8 1.6-1.6 2.4-2.4 2.4-2.4 3.2-4.8 3.2-6.4 0-0.8-0.8-3.2-4-5.6 1.6 0 3.2 1.6 5.6 3.2 1.6-1.6 2.4-4 4-6.4 0.8-1.6 0-2.4 0-2.4s-0.8-1.6-2.4 0c-3.2 1.6-5.6 4-8.8 5.6 0 0-3.2 0-7.2 3.2-0.8 0.8-1.6 1.6-2.4 2.4 0 0 0 0 0 0 0 0.8-0.8 0.8-0.8 0.8-2.4 2.4-4 5.6-6.4 8.8-1.6 2.4-15.2 13.6-18.4 16-0.8 0.8-1.6 0.8-3.2 0.8-1.6 0-3.2-0.8-4-2.4l-2.4-4c-5.6-8.8-12.8-16-21.6-21.6-6.4-4-12-8.8-16.8-14.4L7.2 14.4S3.2 21.6 2.4 29.6c1.6 2.4 6.4 8 12.8 12.8-6.4-3.2-10.4-4.8-14.4-7.2-0.8 4 0 10.4 0 15.2 4 1.6 10.4 4 16.8 5.6-5.6 1.6-11.2 1.6-16 1.6 0.8 3.2 1.6 6.4 3.2 8.8 0.8 1.6 1.6 3.2 2.4 4 2.4 0.8 11.2 2.4 16.8 0.8-4.8 1.6-13.6 4.8-13.6 4.8 6.4 8 13.6 14.4 13.6 14.4 11.2-5.6 13.6-6.4 21.6-12 -8 8-11.2 12-15.2 16l-2.4 4c-1.6 1.6-2.4 4-3.2 5.6-3.2 7.2-8 22.4-8 22.4-0.8 2.4 0.8 4.8 3.2 4 0 0 15.2-4.8 22.4-8 2.4-0.8 4-2.4 5.6-3.2l4-2.4c0.8-0.8 2.4-2.4 4-3.2 0 0 9.6 11.2 18.4 18.4 0 0 3.2-8.8 4.8-13.6-0.8 4.8 0 14.4 0.8 16.8 1.6 0.8 2.4 1.6 4 2.4 3.2 1.6 6.4 2.4 8.8 3.2 0-4.8 0-10.4 1.6-16 1.6 7.2 4 13.6 5.6 17.6 4.8 0.8 11.2 0.8 15.2 0-1.6-4-4-8-7.2-14.4 4.8 5.6 10.4 11.2 12.8 12.8z" fill="#C5C5C5"/>
</svg>
