<svg width="16" height="16" viewBox="0 0 16 16" fill="none" xmlns="http://www.w3.org/2000/svg">
    <path fill-rule="evenodd" clip-rule="evenodd" d="M13.2 12.8C13.7 12.6 14.3 12.3 14.3 12.3L13.4 11.6C13 11.3 12.6 10.8 12.3 10.4C11.9 9.6 11.3 9 10.6 8.5L10.2 8.2C10.1 8.1 10 8 10 7.9C10 7.8 10 7.7 10.1 7.6C10.3 7.4 11.2 7 11.4 6.9C11.6 6.7 11.9 6.5 12.1 6.3C12.2 6.2 12.3 6.1 12.4 6C12.4 6 12.4 6 12.4 6C12.5 5.9 12.6 5.8 12.6 5.8C12.8 5.5 12.9 5.3 12.9 5.1C12.9 5 12.8 4.8 12.5 4.5C12.6 4.5 12.9 4.6 13 4.7C13.1 4.5 13.2 4.3 13.3 4.1C13.4 4 13.2 3.8 13.2 3.8L13.1 3.8C13.1 3.8 13.1 3.8 13.1 3.8C13.1 3.8 13 3.6 12.8 3.7C12.5 3.9 12.3 4 12 4.2C12 4.2 11.7 4.2 11.4 4.5C11.3 4.6 11.2 4.7 11.1 4.8C11.1 4.8 11.1 4.8 11.1 4.8C11.1 4.9 11 4.9 11 5C10.7 5.2 10.5 5.5 10.3 5.7C10.1 5.9 9.2 7.3 8.9 7.5C8.8 7.6 8.7 7.6 8.6 7.6C8.5 7.6 8.4 7.5 8.3 7.4L8.1 7C7.7 6.2 7.1 5.6 6.4 5.1C5.9 4.7 5.5 4.3 5.1 3.9L3.9 2.9C3.9 2.9 3.6 3.5 3.5 4C3.7 4.2 4.1 4.7 4.5 5.1C4 4.9 3.6 4.6 3.3 4.4C3.3 4.7 3.3 5.4 3.4 5.8C3.7 6 4.2 6.2 4.7 6.3C4.3 6.4 3.9 6.5 3.6 6.4C3.7 6.7 3.8 6.9 3.9 7.1C4 7.2 4 7.3 4.1 7.5C4.3 7.5 5 7.7 5.3 7.6C4.9 7.8 4 8.1 4 8.1C4.5 8.7 5.1 9.1 5.1 9.1C6 8.6 6.2 8.5 6.9 8.2C5.9 9 5.5 9.4 5.1 9.9L4.8 10.1C4.7 10.3 4.6 10.4 4.5 10.6C4.3 11.1 3.9 12.3 3.9 12.3C3.9 12.5 4.1 12.7 4.3 12.6C4.3 12.6 5.5 12.2 6 12C6.2 11.9 6.4 11.8 6.6 11.7L6.9 11.5C7 11.4 7.1 11.3 7.3 11.1C7.3 11.1 8 11.8 9 12.5C9 12.5 9.2 11.9 9.4 11.5C9.3 11.9 9.4 12.7 9.5 13C9.6 13.1 9.7 13.2 9.9 13.2C10.1 13.3 10.3 13.4 10.6 13.5C10.6 13.1 10.6 12.6 10.8 12.1C11 12.6 11.3 13.1 11.6 13.6C12.1 13.7 12.6 13.7 13 13.6C12.7 13.1 12.5 12.5 12.1 11.8C12.5 12.3 13.1 12.7 13.2 12.8Z" fill="#424242"/>
</svg> 
